<?xml version="1.0" encoding="utf-8" ?><svg xmlns="http://www.w3.org/2000/svg" xmlns:xlink="http://www.w3.org/1999/xlink" width="1024" height="1024" viewBox="0 0 1024 1024"><path fill="#084D29" d="M318.877 194.751L375.252 194.498C383.713 194.481 392.18 194.419 400.639 194.535C442.839 195.112 482.819 215.563 508.522 248.908C520.119 264.099 528.251 281.643 532.348 300.31C536.195 317.993 535.444 333.921 535.46 351.762L535.482 398.462L535.496 432.859C535.504 443.451 535.777 453.843 534.326 464.398C525.881 526.166 474.209 578.259 411.849 585.248C390.866 587.6 365.762 584.825 344.892 587.02C340.099 587.524 323.273 601.608 318.009 605.615L284.432 631.389C279.502 635.135 268.476 644.71 262.821 645.051C259.956 645.228 257.146 644.2 255.07 642.216C250.482 637.772 250.941 629.274 251.018 623.327C251.345 614.62 250.831 605.653 251.19 596.97C251.819 581.761 235.263 579.368 223.796 574.097C208.825 567.356 195.126 558.089 183.298 546.701C156.957 521.337 141.777 486.545 141.1 449.984C140.613 415.59 141.521 380.97 141.08 346.554C140.948 336.182 140.801 324.796 141.824 314.524C144.84 284.678 157.818 256.717 178.665 235.147C199.718 213.607 231.146 198.588 261.154 195.468C268.049 194.751 277.666 194.968 284.754 194.946L318.877 194.751ZM360.875 556.997C372.979 557.018 391.283 557.529 402.798 556.542C429.692 554.33 454.921 542.619 473.97 523.506C492.526 504.779 503.769 480.031 505.668 453.736C506.691 441.068 506.013 419.996 505.99 406.525L505.893 340.011C505.811 326.186 505.138 312.475 500.765 299.05C487.158 257.28 446.731 228.354 403.514 224.784C386.422 223.372 368.145 224.833 350.967 224.348C328.581 224.44 305.664 224.237 283.279 224.562C280.858 224.601 278.436 224.657 276.016 224.729C246.569 226.396 217.283 239.313 197.452 261.35C185.678 274.64 177.446 290.685 173.519 308.001C170.143 322.528 170.589 336.349 170.587 351.102L170.606 386.603C170.62 406.751 169.821 433.269 170.903 453.023C172.423 482.085 185.537 509.324 207.306 528.638C222.6 542.336 241.895 551.901 262.169 555.875C267.273 556.875 274.584 557.175 279.502 558.862C281.154 559.428 281.416 562.808 281.577 564.399C282.101 569.557 280.51 592.447 282.311 595.73C287.78 595.988 328.022 560.141 337.013 558.083C344.478 556.374 353.22 556.958 360.875 556.997Z"/><path fill="#084D29" d="M288.591 355.169C300.09 354.845 384.761 354.297 387.582 355.674C388.762 356.249 389.489 356.995 389.839 358.283C390.593 361.054 389.524 364.583 388.762 367.287C382.408 389.821 362.362 392.237 352.914 409.053C351.209 412.086 350.373 415.246 350.069 418.698C349.592 424.102 349.702 429.64 349.547 435.066L348.622 466.86C348.409 473.772 345.836 518.538 346.665 521.403L347.425 521.748C350.938 519.918 355.5 516.507 359.013 514.265C376.351 503.237 396.043 495.509 416.052 490.947C420.868 489.849 432.609 486.74 435.755 492.544C436.964 494.773 436.17 499.119 433.286 499.97C428.389 501.415 423.21 502.072 418.15 503.072C410.814 504.552 403.583 506.515 396.506 508.948C383.182 513.58 370.602 520.125 359.161 528.377C349.304 535.435 342.454 547.634 330.344 538.297C326.377 535.238 322.32 531.912 318.255 529.043C308.947 522.478 298.959 516.933 288.464 512.504C259.332 499.721 233.71 498.863 202.684 499.511C200.859 499.549 200.746 492.976 200.72 491.663C200.287 469.944 200.194 448.105 200.371 426.391C200.471 414.094 196.167 403.739 211.12 399.28C212.268 398.919 212.025 398.943 213.025 399.47C214.393 402.978 213.915 413.572 213.908 417.783L213.861 462.463C213.858 465.596 213.881 469.536 213.844 472.9C213.677 488.237 212.863 486.766 227.697 487.221C234.058 487.416 243.896 488.319 250.434 489.245C279.778 493.402 305.433 505.379 329.053 522.907C329.372 517.935 328.697 509.41 328.496 504.018L327.482 472.12C326.851 454.752 326.782 437.424 325.902 419.972C324.982 401.717 305.914 395.458 295.648 383.047C290.005 376.223 285.837 367.502 285.987 358.46C286.015 356.792 287.452 355.968 288.591 355.169Z"/><path fill="#084D29" d="M237.582 382.689C263.493 381.422 288.828 390.613 307.899 408.2C316.251 415.866 315.279 418.946 315.483 429.559C315.607 435.97 315.765 442.755 315.917 449.213C316.434 468.026 317.119 486.833 317.973 505.633C315.493 504.175 313.24 502.55 310.89 500.901C291.974 488.038 268.869 479.527 246.294 476.743C240.411 475.661 232.493 475.815 226.978 474.223C224.064 473.383 225.035 455.235 225.041 452.3L225.08 418.378C225.085 408.691 225.116 399.004 224.914 389.321C224.769 382.365 232.554 383.104 237.582 382.689Z"/><path fill="#084D29" d="M422.054 383.204C430.359 382.718 440.61 384.348 444.342 392.993C454.02 415.411 450.181 441.232 444.004 464.083C440.811 475.958 438.943 477.576 426.957 477.947C409.72 478.481 391.539 485.512 376.818 493.725C370.306 497.354 364.464 501.68 357.95 505.312C358.191 488.274 359.858 469.795 359.928 452.495C359.973 441.232 360.476 428.969 360.841 417.654C360.973 415.944 361.78 414.044 362.958 412.794C378.618 396.182 399.649 385.47 422.054 383.204ZM424.68 454.023C429.389 448.309 430.648 442.04 431.041 434.762C431.521 425.877 432.431 407.491 422.811 402.862C421.264 403.662 419.967 404.061 419.174 405.54C419.129 409.653 420.224 413.647 420.551 417.756C421.175 425.611 421.33 433.598 420.436 441.472C419.985 445.447 417.395 450.359 420.712 454.154C421.385 454.923 421.478 454.727 422.458 455.006C423.691 454.577 423.573 454.677 424.68 454.023Z"/><path fill="#C11519" d="M339.851 241.8C354.771 250.85 363.958 271.546 361.357 288.643C360.84 292.042 357.614 299.958 358.198 302.92L358.912 303.314C365.989 301.439 371.985 286.739 371.701 279.674C376.261 286.423 380.293 292.554 382.739 300.438C387.683 316.371 381.992 334.725 366.995 342.992C363.137 345.118 360.157 346.089 355.93 347.418C353.72 340.939 354.301 340.575 354.246 333.917L353.56 333.332C349.937 334.743 346.964 341.028 342.761 340.76L341.782 339.271C337.917 333.559 333.603 327.974 332.328 321.006C331.894 318.637 332.737 311.923 331.264 310.633C323.034 312.389 315.988 327.665 316.987 335.51C317.68 340.95 318.226 342.225 320.559 347.014C319.681 346.863 318.804 346.703 317.929 346.534C309.575 344.909 301.56 341.311 296.886 333.834C287.938 321.552 292.92 296.028 304.093 286.228C321.179 271.24 334.48 267.922 339.851 241.8Z"/><path fill="#084D29" d="M461.739 362.099C470.267 363.283 473.586 372.194 476.154 379.821C487.914 414.746 483.561 454.94 469.88 488.74C468.252 492.76 466.126 494.778 462.171 496.132C448.045 494.356 453.887 483.864 457.656 475.511C466.615 455.546 467.733 432.807 465.835 411.267C464.953 401.267 462.23 390.697 458.409 381.39C456.528 376.807 452.203 372.191 454.933 366.84C456.376 364.011 458.876 362.916 461.739 362.099Z"/><path fill="#084D29" d="M812.981 690.505C843.754 687.381 871.207 709.86 874.215 740.645C877.224 771.429 854.643 798.797 823.848 801.691C793.214 804.569 766.021 782.133 763.029 751.511C760.036 720.888 782.37 693.612 812.981 690.505ZM823.471 775.882C830.451 774.699 836.675 771.498 840.645 765.51C849.371 752.35 847.889 729.085 834.142 719.761C827.43 715.209 821.045 714.994 813.478 715.598C806.534 717.124 798.968 720.763 795.745 727.284C784.276 750.492 793.911 778.815 823.471 775.882Z"/><path fill="#084D29" d="M312.857 658.222C338.997 657.528 335.91 655.739 335.937 680.599L335.888 727.045C335.88 735.176 335.698 743.194 336.097 751.35C337.181 773.54 360.33 781.115 378.262 773.547C396.985 765.645 393.229 740.216 393.225 723.478L393.149 677.986C393.139 673.294 392.88 665.191 394.109 660.957C395.324 656.771 417.99 657.91 420.212 659.09C424.191 663.361 422.619 681.719 422.574 688.375L422.644 729.842C422.66 745.528 423.818 764.987 415.446 778.303C392.94 814.099 315.88 809.378 308.137 762.918C306.888 755.424 307.024 748.786 307.024 741.364L307.037 714.745C307.031 708.347 306.293 662.453 308.069 659.715C309.897 658.533 310.635 658.583 312.857 658.222Z"/><path fill="#084D29" d="M452.122 658.204C472.751 657.5 493.889 658.485 514.577 658.034C518.208 657.955 530 657.649 532.672 659.466C534.46 663.033 534.806 680.57 532.25 683.762C527.449 685.688 486.827 683.94 478.277 684.578C477.585 684.629 475.924 685.299 475.725 685.964C473.719 692.678 474.649 704.757 474.839 712.068C474.854 712.628 475.502 713.894 475.678 713.96C484.625 717.349 517.957 712.396 524.523 716.904C526.753 720.321 526.557 732.396 525.797 736.57C525.599 737.656 525.159 739.029 524.272 739.768C518.583 744.508 482.261 737.963 476.565 742.782C474.281 744.714 474.914 749.551 474.95 752.25C474.919 754.867 474.144 770.51 476.316 771.357C486.556 775.35 526.166 769.528 533.466 774.669C534.928 777.577 534.742 781.197 534.721 784.382C534.701 787.388 535.186 795.859 532.378 797.726C530.052 799.272 454.877 798.964 448.404 797.991C446.582 796.482 446.076 794.437 446.073 792.122C446.032 749.465 446.221 706.802 446 664.145C445.973 659.028 447.469 658.966 452.122 658.204Z"/><path fill="#084D29" d="M660.53 652.22C664.872 652.075 673.858 650.859 677.041 653.982C681.229 658.09 679.816 694.498 680.158 702.544C684.195 698.303 689.241 695.155 694.825 693.394C705.655 689.973 719.762 690.994 729.929 696.329C754.726 709.361 749.944 739.602 750.316 763.167C750.427 770.228 751.365 788.81 749.265 796.126C748.546 798.633 736.753 798.481 734.062 798.338C730.918 798.17 725.72 798.773 722.543 796.748C720.145 793.275 721.106 753.801 721.129 746.75C721.168 739.32 721.776 731.17 717.86 724.632C715.23 720.196 710.833 717.092 705.773 716.099C695.92 714.072 686.035 718.286 681.618 727.401C676.926 737.083 683.571 793.478 677.138 797.983C673.262 798.386 669.114 798.382 665.084 798.426C662.385 798.455 653.366 798.892 652.059 795.767C651.479 794.379 651.089 790.116 651.089 788.378C651.072 745.745 651.184 703.104 651.051 660.471C651.045 658.403 651.406 656.445 652.096 654.502C654.194 652.241 657.433 652.451 660.53 652.22Z"/><path fill="#084D29" d="M258.824 658.631C264.321 658.397 280.013 657.304 283.724 660.708C284.546 662.566 284.931 664.456 284.929 666.504C284.897 690.397 284.812 714.291 284.943 738.186C284.976 744.387 285.072 750.904 284.566 757.058C284.174 762.199 283.08 767.262 281.314 772.106C270.441 801.412 237.312 806.75 210.754 797.018C206.637 795.418 189.997 785.838 192.318 780.214C193.698 776.87 205.982 767.105 209.637 764.891C214.295 768.088 217.419 771.905 223.009 774.029C235.242 778.994 249.774 776.062 253.254 761.479C255.993 749.999 255.054 735.613 255.039 723.715L254.891 679.078C254.845 674.078 254.335 666.042 255.715 661.319C256.159 659.801 257.448 659.261 258.824 658.631Z"/><path fill="#084D29" d="M594.052 692.203C603.858 691.723 614.732 693.213 623.652 697.495C627.589 699.454 637.712 704.217 636.755 709.677C635.905 714.518 624.994 722.497 621.112 725.343C618.806 723.337 616.689 721.501 614.072 719.898C597.896 709.992 576.932 717.626 573.535 736.998C567.61 770.784 594.284 787.949 622.108 767.292C626.027 769.881 627.268 770.941 630.852 774.173C632.968 776.256 637.538 779.987 637.733 782.578C637.828 783.838 637.431 784.842 636.614 785.763C628.753 794.627 619.108 798.899 607.574 800.309C591.932 802.22 576.099 799.343 563.561 789.552C552.26 780.728 546.195 767.427 544.787 753.395C543.263 738.218 546.363 722.166 556.356 710.247C566.412 698.253 578.891 693.597 594.052 692.203Z"/></svg>